<svg xmlns="http://www.w3.org/2000/svg" viewBox="0 0 120 120" fill="none">
  <circle cx="60" cy="60" r="58" fill="#1a2540"/>
  <!-- small stars background -->
  <circle cx="20" cy="25" r="2" fill="white" opacity="0.6"/>
  <circle cx="95" cy="20" r="1.5" fill="white" opacity="0.5"/>
  <circle cx="105" cy="50" r="2" fill="white" opacity="0.4"/>
  <circle cx="15" cy="80" r="1.5" fill="white" opacity="0.5"/>
  <circle cx="35" cy="95" r="2" fill="white" opacity="0.4"/>
  <circle cx="90" cy="90" r="1.5" fill="white" opacity="0.5"/>
  <!-- big star glow -->
  <circle cx="60" cy="42" r="20" fill="#f5e06a" opacity="0.25"/>
  <!-- big star -->
  <polygon points="60,22 65,37 82,37 68,47 73,62 60,52 47,62 52,47 38,37 55,37" fill="#f5e06a" stroke="#e8c830" stroke-width="1"/>
  <!-- manger / stable -->
  <rect x="28" y="80" width="64" height="28" rx="4" fill="#8b6530" opacity="0.9"/>
  <rect x="28" y="80" width="64" height="8" rx="2" fill="#a07840"/>
  <!-- baby swaddle -->
  <ellipse cx="60" cy="96" rx="14" ry="8" fill="#f0e8d0"/>
  <ellipse cx="60" cy="91" rx="8" ry="6" fill="#f5d090"/>
  <!-- face dot eyes -->
  <circle cx="57" cy="90" r="1.5" fill="#6a4020"/>
  <circle cx="63" cy="90" r="1.5" fill="#6a4020"/>
</svg>
