<svg xmlns="http://www.w3.org/2000/svg" viewBox="0 0 120 120" fill="none">
  <circle cx="60" cy="60" r="58" fill="#fff8f0"/>
  <!-- bush -->
  <ellipse cx="60" cy="88" rx="36" ry="16" fill="#5cb868"/>
  <ellipse cx="40" cy="80" rx="18" ry="14" fill="#4a9e50"/>
  <ellipse cx="80" cy="80" rx="18" ry="14" fill="#4a9e50"/>
  <ellipse cx="60" cy="76" rx="20" ry="14" fill="#5cb868"/>
  <!-- flame outer -->
  <path d="M60 25 C55 38 42 45 45 60 C48 72 52 78 60 78 C68 78 72 72 75 60 C78 45 65 38 60 25Z" fill="#f5a030"/>
  <!-- flame middle -->
  <path d="M60 35 C57 44 50 50 52 60 C54 68 57 72 60 72 C63 72 66 68 68 60 C70 50 63 44 60 35Z" fill="#f5c842"/>
  <!-- flame inner -->
  <path d="M60 45 C58 52 55 56 57 62 C58 66 59 68 60 68 C61 68 62 66 63 62 C65 56 62 52 60 45Z" fill="white"/>
  <!-- ground line -->
  <line x1="20" y1="100" x2="100" y2="100" stroke="#8b6530" stroke-width="3" stroke-linecap="round"/>
</svg>
