<svg xmlns="http://www.w3.org/2000/svg" viewBox="0 0 120 120" fill="none">
  <circle cx="60" cy="60" r="58" fill="#f0faf0"/>
  <!-- basket -->
  <ellipse cx="60" cy="82" rx="32" ry="12" fill="#c8a050"/>
  <path d="M28 82 Q28 105 60 105 Q92 105 92 82" fill="#e8c070"/>
  <!-- basket weave lines -->
  <path d="M35 88 Q60 82 85 88" stroke="#c8a050" stroke-width="2" fill="none"/>
  <path d="M32 95 Q60 89 88 95" stroke="#c8a050" stroke-width="2" fill="none"/>
  <!-- loaf of bread -->
  <ellipse cx="48" cy="62" rx="16" ry="10" fill="#d4944a"/>
  <ellipse cx="48" cy="59" rx="12" ry="7" fill="#e8b060"/>
  <path d="M36 62 Q48 55 60 62" stroke="#d4944a" stroke-width="2" fill="none"/>
  <!-- fish -->
  <ellipse cx="76" cy="60" rx="14" ry="9" fill="#6ab0d4"/>
  <path d="M90 60 L100 52 L100 68 Z" fill="#4a90b8"/>
  <circle cx="70" cy="58" r="2.5" fill="white"/>
  <circle cx="70" cy="58" r="1.5" fill="#1a3050"/>
  <!-- sparkle dots showing multiplication -->
  <circle cx="42" cy="30" r="3" fill="#f5c842"/>
  <circle cx="60" cy="26" r="4" fill="#f5c842"/>
  <circle cx="78" cy="30" r="3" fill="#f5c842"/>
  <circle cx="52" cy="22" r="2" fill="#f5c842"/>
  <circle cx="68" cy="22" r="2" fill="#f5c842"/>
</svg>
