<svg xmlns="http://www.w3.org/2000/svg" viewBox="0 0 120 120" fill="none">
  <circle cx="60" cy="60" r="58" fill="#1a2a4a"/>
  <!-- stars -->
  <circle cx="20" cy="20" r="2" fill="white"/>
  <circle cx="40" cy="12" r="1.5" fill="white"/>
  <circle cx="85" cy="15" r="2.5" fill="white"/>
  <circle cx="100" cy="28" r="1.5" fill="white"/>
  <circle cx="15" cy="45" r="1.5" fill="white"/>
  <circle cx="108" cy="50" r="2" fill="white"/>
  <!-- moon -->
  <circle cx="88" cy="30" r="14" fill="#f0e8b0"/>
  <circle cx="94" cy="25" r="12" fill="#1a2a4a"/>
  <!-- earth -->
  <circle cx="52" cy="72" r="32" fill="#4a90d9"/>
  <!-- land masses -->
  <ellipse cx="48" cy="62" rx="12" ry="16" fill="#5cb868" transform="rotate(-15 48 62)"/>
  <ellipse cx="65" cy="78" rx="10" ry="12" fill="#5cb868" transform="rotate(20 65 78)"/>
  <ellipse cx="42" cy="82" rx="7" ry="8" fill="#5cb868"/>
  <!-- cloud -->
  <ellipse cx="52" cy="52" rx="14" ry="6" fill="white" opacity="0.7"/>
  <ellipse cx="45" cy="54" rx="8" ry="5" fill="white" opacity="0.7"/>
  <ellipse cx="59" cy="55" rx="8" ry="5" fill="white" opacity="0.7"/>
</svg>
